<svg xmlns="http://www.w3.org/2000/svg" viewBox="0 0 32 32">
  <style>
    .card { fill: #ffffff; }
    .border { stroke: #1a1a1c; stroke-width: 0.9; }
    .ink { fill: #1a1a1c; }
    .red { fill: #ee3d48; }
    @media (prefers-color-scheme: dark) {
      .border { stroke: #0b0b0d; stroke-width: 0.6; }
    }
  </style>
  <!-- Back card, fanned left -->
  <g transform="rotate(-16 14 18)">
    <rect class="card border" x="8" y="8.8" width="12" height="17" rx="2"/>
    <path class="ink" transform="translate(11 13.5) scale(0.3)" d="M10.215,1.759 C10.811,1.462 11.432,1.25 12,1.25 C12.568,1.25 13.188,1.462 13.785,1.759 C14.396,2.064 15.052,2.494 15.71,3.007 C17.025,4.034 18.401,5.438 19.504,6.972 C20.6,8.496 21.472,10.212 21.694,11.859 C21.923,13.554 21.458,15.198 19.875,16.374 C18.264,17.569 16.409,17.692 14.976,17.333 C14.799,17.288 14.647,17.25 14.516,17.219 C14.573,17.393 14.648,17.59 14.738,17.802 C14.972,18.352 15.255,18.893 15.429,19.226 C15.473,19.31 15.511,19.382 15.538,19.436 L15.56,19.479 C15.768,19.89 15.957,20.263 16.065,20.569 C16.17,20.864 16.293,21.347 16.009,21.798 C15.8,22.131 15.449,22.301 15.197,22.396 C14.915,22.502 14.584,22.575 14.243,22.626 C13.558,22.73 12.726,22.763 11.919,22.746 C11.111,22.728 10.297,22.659 9.646,22.548 C9.323,22.492 9.017,22.423 8.764,22.335 C8.638,22.292 8.506,22.237 8.384,22.166 C8.274,22.101 8.109,21.987 7.99,21.798 C7.706,21.347 7.83,20.864 7.934,20.569 C8.042,20.263 8.231,19.89 8.439,19.479 L8.461,19.436 C8.489,19.382 8.526,19.31 8.57,19.226 C8.745,18.893 9.028,18.352 9.261,17.802 C9.351,17.59 9.427,17.393 9.483,17.219 C9.352,17.25 9.2,17.288 9.023,17.333 C7.59,17.692 5.735,17.569 4.124,16.374 C2.541,15.198 2.076,13.554 2.305,11.859 C2.527,10.212 3.4,8.496 4.495,6.972 C5.598,5.438 6.974,4.034 8.289,3.007 C8.947,2.494 9.603,2.064 10.215,1.759 Z"/>
  </g>
  <!-- Front card, fanned right, on top -->
  <g transform="rotate(16 18 18)">
    <rect class="card border" x="12" y="7.6" width="12" height="17" rx="2"/>
    <path class="red" transform="translate(15 13) scale(0.3)" d="M12 21.2478C11.29 21.2478 10.57 21.0178 9.95996 20.5678C7.33996 18.6078 1.25 13.5278 1.25 8.69781C1.25 5.36782 3.78 2.75781 7 2.75781C8.79 2.75781 10.31 3.42777 12 4.96777C13.69 3.42777 15.21 2.75781 17 2.75781C20.22 2.75781 22.75 5.36782 22.75 8.69781C22.75 13.5378 16.66 18.6178 14.04 20.5678C13.43 21.0278 12.72 21.2478 12 21.2478Z"/>
  </g>
</svg>
