<svg xmlns="http://www.w3.org/2000/svg" viewBox="0 0 32 32">
  <style>
    :root { --fg: #f5f5f7; --bg: #000; }
    @media (prefers-color-scheme: light) {
      :root { --fg: #0a0a0c; --bg: #f3f3f4; }
    }
    .bg { fill: var(--bg); }
    .fg { fill: var(--fg); }
    .red { fill: #ee3d48; }
  </style>
  <rect class="bg" width="32" height="32" rx="7" />
  <path class="fg" d="M11 9.6c0-1 0.7-1.6 1.6-1.6 0.9 0 1.6 0.7 1.6 1.6 0 0.9-0.6 1.4-1.4 2-1 0.8-1.9 1.6-1.9 3 0 0.2 0 0.4 0.1 0.6h3.2c0-0.1-0.1-0.3-0.1-0.5 0-0.7 0.5-1 1.4-1.7 1.2-0.9 2.1-1.9 2.1-3.4 0-2.1-1.7-3.6-4-3.6s-4 1.5-4 3.6h1.4z"/>
  <circle class="red" cx="12.5" cy="20.5" r="1.5" />
  <circle class="red" cx="19.5" cy="20.5" r="1.5" />
  <path class="fg" d="M22.5 8.5 l3 3 -3 3 -3 -3 z" opacity="0.55"/>
</svg>
